<svg xmlns="http://www.w3.org/2000/svg" width="1024" height="1024" viewBox="0 0 1024 1024">
  <rect width="1024" height="1024" rx="228" ry="228" fill="#B87333"/>
  <g transform="translate(200, 180) scale(1.28)">
    <defs><clipPath id="b9c3888753"><path d="M 203.292969 48.699219 L 257.144531 48.699219 L 257.144531 102.550781 L 203.292969 102.550781 Z M 203.292969 48.699219 " clip-rule="nonzero"/></clipPath><clipPath id="4d22c32304"><path d="M 230.21875 48.699219 C 215.347656 48.699219 203.292969 60.753906 203.292969 75.625 C 203.292969 90.496094 215.347656 102.550781 230.21875 102.550781 C 245.089844 102.550781 257.144531 90.496094 257.144531 75.625 C 257.144531 60.753906 245.089844 48.699219 230.21875 48.699219 Z M 230.21875 48.699219 " clip-rule="nonzero"/></clipPath><clipPath id="bb0fcd7527"><path d="M 0.292969 0.699219 L 54.144531 0.699219 L 54.144531 54.550781 L 0.292969 54.550781 Z M 0.292969 0.699219 " clip-rule="nonzero"/></clipPath><clipPath id="9355813ba7"><path d="M 27.21875 0.699219 C 12.347656 0.699219 0.292969 12.753906 0.292969 27.625 C 0.292969 42.496094 12.347656 54.550781 27.21875 54.550781 C 42.089844 54.550781 54.144531 42.496094 54.144531 27.625 C 54.144531 12.753906 42.089844 0.699219 27.21875 0.699219 Z M 27.21875 0.699219 " clip-rule="nonzero"/></clipPath><clipPath id="4bcf4fb84b"><rect x="0" width="55" y="0" height="55"/></clipPath></defs><path fill="#ffffff" d="M 149.1875 189.941406 C 154.105469 200.191406 156.859375 211.636719 156.859375 223.769531 C 156.859375 267.117188 121.699219 302.28125 78.351562 302.28125 C 34.96875 302.269531 -0.195312 267.109375 -0.195312 223.769531 C -0.195312 192.976562 17.546875 166.359375 43.335938 153.5 C 84.84375 132.769531 149.238281 138.144531 178.472656 174.644531 C 240.984375 252.734375 133.378906 367.683594 215.425781 426.703125 C 215.425781 426.703125 170.0625 293.648438 288.367188 228.378906 C 288.367188 228.378906 353.722656 255.585938 346.46875 393.570312 C 426.34375 149.222656 179.113281 176.882812 149.691406 75.445312 C 192.710938 27.09375 243.640625 16.707031 289.746094 32.835938 C 298.523438 21.207031 319.113281 0.160156 352.113281 1.992188 C 352.113281 1.992188 366.226562 38.898438 342.460938 64.824219 C 420.871094 135.011719 460.679688 289.398438 365.855469 442.503906 C 365.855469 442.503906 397.429688 450.644531 410.714844 486.859375 L 118.578125 486.859375 C 8.535156 387.167969 230.21875 281.640625 149.1875 189.941406 Z M 149.1875 189.941406 " fill-opacity="1" fill-rule="evenodd"/><g clip-path="url(#b9c3888753)"><g clip-path="url(#4d22c32304)"><g transform="matrix(1, 0, 0, 1, 203, 48)"><g clip-path="url(#4bcf4fb84b)"><g clip-path="url(#bb0fcd7527)"><g clip-path="url(#9355813ba7)"><path fill="#ffffff" d="M 0.292969 0.699219 L 54.144531 0.699219 L 54.144531 54.550781 L 0.292969 54.550781 Z M 0.292969 0.699219 " fill-opacity="1" fill-rule="nonzero"/></g></g></g></g></g></g>
  </g>
</svg>